<?xml version="1.0" standalone="no"?>
<!DOCTYPE svg PUBLIC "-//W3C//DTD SVG 20010904//EN"
 "http://www.w3.org/TR/2001/REC-SVG-20010904/DTD/svg10.dtd">
<svg version="1.0" xmlns="http://www.w3.org/2000/svg"
 width="512.000000pt" height="512.000000pt" viewBox="0 0 512.000000 512.000000"
 preserveAspectRatio="xMidYMid meet">
<metadata>
Created by potrace 1.14, written by Peter Selinger 2001-2017
</metadata>
<g transform="translate(0.000000,512.000000) scale(0.100000,-0.100000)"
fill="#000000" stroke="none">
<path d="M0 2560 l0 -2560 2560 0 2560 0 0 2560 0 2560 -2560 0 -2560 0 0
-2560z m2703 1810 c122 -38 223 -123 281 -237 165 -327 -61 -703 -423 -703
-192 0 -349 97 -433 267 -39 79 -43 92 -46 183 -7 155 36 269 137 371 125 125
314 171 484 119z m-20 -1740 c266 -82 433 -395 414 -774 -16 -302 -120 -546
-319 -744 -233 -234 -580 -370 -995 -389 l-133 -6 0 211 0 212 68 0 c37 0 108
5 157 11 259 32 428 120 502 261 24 47 27 64 27 148 0 84 -3 101 -27 150 -15
30 -68 102 -116 159 -102 119 -136 180 -151 274 -35 219 101 435 309 493 72
19 189 17 264 -6z"/>
</g>
</svg>
